    <svg width="100" height="200" viewBox="0 0 600 216" fill="none" xmlns="http://www.w3.org/2000/svg">
    <path d="M191.42 113.258C188.975 110.072 188.975 105.732 191.42 102.546C216.129 70.408 240.239 39.1968 264.062 7.75961C268.136 2.38071 272.378 -0.037546 279.592 0.0528557C310.078 0.437063 340.587 0.0980627 371.096 0.324067C374.691 0.346667 379.796 1.13768 381.641 3.42032C396.381 21.7719 410.521 40.5754 426.099 60.8932C419.94 61.2096 416.201 61.5486 412.438 61.5712C379.964 61.6164 347.249 61.752 314.775 61.4582C307.106 61.7068 303.463 63.1758 299.317 68.0575C290.066 78.9509 279.64 91.5394 273.673 98.7715C268.28 105.552 268.544 108.648 273.673 114.795C282.492 125.372 290.066 136.921 299.317 147.136C302.816 150.978 309.478 154.21 314.775 154.323C347.249 154.979 379.724 154.617 412.198 154.662C415.985 154.662 419.94 154.911 426.099 155.182C410.329 175.613 395.734 194.688 380.755 213.333C379.149 215.344 374.427 215.796 371.12 215.819C340.227 216 309.335 216.113 278.442 215.729C274.392 215.684 268.855 213.672 266.579 210.757C241.342 178.528 216.537 146.006 191.42 113.258Z" fill="#0482E1"/>
    <path d="M247.19 0.233723C214.811 42.3157 154.727 124.039 154.991 123.994C175.818 120.174 186.027 132.356 195.686 146.82C204.913 159.635 215.29 172.607 225.74 186.145C221.665 186.145 218.07 186.145 215.194 186.145C182.36 186.213 149.502 186.484 116.668 186.009C107.417 185.874 100.659 187.727 96.4648 195.908C88.3402 211.796 75.4223 217.559 56.4169 215.593C38.8496 213.785 0 216 0 216C0 216 7.69322 204.926 11.0006 200.632C60.5871 136.424 110.317 72.3065 159.688 7.94047C164.17 2.10956 168.652 -0.150481 176.225 0.00772243C199.041 0.550133 221.833 0.233723 247.19 0.233723Z" fill="#0482E1"/>
    <path d="M371.934 108.347L392.543 139.56H376.584L362.826 116.862L349.069 139.56H333.11L353.609 108.347L333 78.6117H348.959L362.826 101.121L376.694 78.6117H392.653L371.934 108.347Z" fill="#FF6619"/>
    <path d="M398.128 120.784C398.128 114.794 399.944 110.228 403.549 107.112C407.153 103.996 412.051 102.438 418.269 102.438H430.789C432.302 102.438 433.595 101.901 434.641 100.853C435.687 99.8053 436.209 98.5428 436.209 97.0655C436.209 95.5881 435.687 94.2988 434.641 93.2243C433.595 92.1498 432.357 91.6126 430.899 91.6126H398.156V78.6386H429.276C432.825 78.6386 435.879 79.1221 438.438 80.116C440.997 81.1099 443.116 82.4261 444.739 84.0915C446.39 85.7569 447.573 87.7177 448.344 89.9741C449.114 92.2304 449.472 94.5405 449.472 96.9312C449.472 99.3218 449.114 101.578 448.371 103.754C447.656 105.93 446.472 107.864 444.849 109.583C443.226 111.302 441.162 112.726 438.576 113.8C436.017 114.875 432.908 115.412 429.22 115.412H416.398C414.94 115.412 413.729 115.976 412.794 117.077C411.858 118.178 411.363 119.495 411.363 120.972V139.587H398.073V120.784H398.128Z" fill="#04C64D"/>
    <path d="M482.766 139.587C478.143 139.587 474.126 138.969 470.659 137.733C467.219 136.498 464.33 134.725 462.019 132.415C459.708 130.105 457.974 127.311 456.791 124.034C455.608 120.757 455.03 117.077 455.03 113.021V78.6386H468.32V113.102C468.32 117.373 469.558 120.677 472.035 123.067C474.511 125.458 477.978 126.64 482.463 126.64H502.026V139.614H482.766V139.587Z" fill="#FF6619"/>
    <path d="M586.03 91.5857V139.587H572.74V91.5857H558.02V78.6117H599.87V91.5857H586.03Z" fill="#FF6619"/>
    <path d="M565.916 134.376C559.038 117.104 552.104 99.8321 545.252 82.5334C543.409 77.8864 542.281 77 537.273 77C532.815 77 531.275 77.8596 529.954 81.1366C522.662 99.4023 515.371 117.668 508.079 135.934C507.639 137.035 507.171 138.19 508.299 139.103C509.318 139.936 510.363 139.372 511.326 138.862C515.288 136.713 519.25 134.51 523.24 132.388C530.284 128.681 533.751 122.933 533.999 115.143C534.191 109.099 534.549 103.082 534.852 97.0385C534.907 96.1521 535.044 95.3194 535.567 94.5136C536.695 92.8213 537.713 92.875 538.896 94.4598C540.08 96.0447 539.859 97.8444 539.887 99.5904C539.914 102.787 541.18 105.177 543.877 107.004C546.05 108.455 548.031 110.147 550.095 111.759C550.921 112.403 551.031 113.316 550.728 114.176C550.37 115.251 549.352 114.767 548.609 114.74C546.986 114.633 545.362 114.364 543.712 114.257C540.96 114.095 540.272 114.821 540.602 117.507C541.428 123.819 544.675 128.627 550.315 131.851C554.085 134 557.882 136.095 561.734 138.083C563.082 138.781 564.568 140.393 566.164 138.996C567.897 137.572 566.494 135.88 565.916 134.376ZM525.992 114.767C525.221 114.848 524.258 115.251 523.818 114.283C523.35 113.29 523.68 112.349 524.533 111.678C526.57 110.093 528.633 108.589 531.082 106.709C531.165 107.864 531.22 108.401 531.22 108.938C531.385 114.23 531.385 114.23 525.992 114.767Z" fill="#04C64D"/>
    </svg>
