<?xml version="1.0" encoding="UTF-8"?>
<!DOCTYPE svg PUBLIC "-//W3C//DTD SVG 1.1//EN" "http://www.w3.org/Graphics/SVG/1.1/DTD/svg11.dtd">
<svg xmlns="http://www.w3.org/2000/svg" version="1.1" width="792px" height="417px" style="shape-rendering:geometricPrecision; text-rendering:geometricPrecision; image-rendering:optimizeQuality; fill-rule:evenodd; clip-rule:evenodd" xmlns:xlink="http://www.w3.org/1999/xlink">
<g><path style="opacity:0.982" fill="#354ca0" d="M 238.5,186.5 C 236.926,186.937 235.759,187.937 235,189.5C 229.308,199.57 223.141,209.237 216.5,218.5C 204.535,207.035 192.702,195.369 181,183.5C 171.887,169.919 171.221,155.919 179,141.5C 194.667,116.5 210.333,91.5 226,66.5C 226.718,65.5494 227.551,65.3828 228.5,66C 240.333,77.8333 252.167,89.6667 264,101.5C 270.606,112.019 272.273,123.352 269,135.5C 259.325,152.859 249.159,169.859 238.5,186.5 Z"/></g>
<g><path style="opacity:0.948" fill="#354da1" d="M 305.5,97.5 C 320.833,97.5 336.167,97.5 351.5,97.5C 351.5,101.833 351.5,106.167 351.5,110.5C 340.833,110.5 330.167,110.5 319.5,110.5C 319.5,115.833 319.5,121.167 319.5,126.5C 328.5,126.5 337.5,126.5 346.5,126.5C 346.5,130.833 346.5,135.167 346.5,139.5C 337.5,139.5 328.5,139.5 319.5,139.5C 319.5,148.5 319.5,157.5 319.5,166.5C 314.833,166.5 310.167,166.5 305.5,166.5C 305.5,143.5 305.5,120.5 305.5,97.5 Z"/></g>
<g><path style="opacity:0.961" fill="#354da1" d="M 360.5,97.5 C 372.895,97.0824 385.228,97.5824 397.5,99C 408.502,104.973 412.335,114.14 409,126.5C 406.33,133.835 401.163,138.335 393.5,140C 386.842,140.5 380.175,140.666 373.5,140.5C 373.5,149.167 373.5,157.833 373.5,166.5C 369.167,166.5 364.833,166.5 360.5,166.5C 360.5,143.5 360.5,120.5 360.5,97.5 Z M 373.5,110.5 C 379.593,110.139 385.593,110.639 391.5,112C 395.212,114.513 396.378,118.013 395,122.5C 394.167,124 393,125.167 391.5,126C 385.509,126.499 379.509,126.666 373.5,126.5C 373.5,121.167 373.5,115.833 373.5,110.5 Z"/></g>
<g><path style="opacity:0.94" fill="#354da1" d="M 416.5,97.5 C 433.5,97.5 450.5,97.5 467.5,97.5C 467.5,101.833 467.5,106.167 467.5,110.5C 461.167,110.5 454.833,110.5 448.5,110.5C 448.5,129.167 448.5,147.833 448.5,166.5C 443.833,166.5 439.167,166.5 434.5,166.5C 434.5,147.833 434.5,129.167 434.5,110.5C 428.5,110.5 422.5,110.5 416.5,110.5C 416.5,106.167 416.5,101.833 416.5,97.5 Z"/></g>
<g><path style="opacity:0.971" fill="#eb4723" d="M 305.5,184.5 C 327.169,184.333 348.836,184.5 370.5,185C 400.164,187.33 415.497,203.33 416.5,233C 416.215,259.244 403.215,274.911 377.5,280C 363.504,280.5 349.504,280.667 335.5,280.5C 335.5,300.5 335.5,320.5 335.5,340.5C 325.5,340.5 315.5,340.5 305.5,340.5C 305.5,288.5 305.5,236.5 305.5,184.5 Z M 335.5,214.5 C 348.504,214.333 361.504,214.5 374.5,215C 381.973,218.603 385.64,224.603 385.5,233C 385.738,240.868 382.405,246.534 375.5,250C 362.24,251.444 348.907,251.944 335.5,251.5C 335.5,239.167 335.5,226.833 335.5,214.5 Z"/></g>
<g><path style="opacity:0.978" fill="#eb4724" d="M 238.5,186.5 C 252.194,199.027 265.028,212.361 277,226.5C 282.168,239.475 281.501,252.142 275,264.5C 259.367,289.786 243.367,314.786 227,339.5C 215.041,328.542 203.375,317.209 192,305.5C 183.423,294.274 181.423,281.941 186,268.5C 195.927,251.639 206.093,234.972 216.5,218.5C 223.141,209.237 229.308,199.57 235,189.5C 235.759,187.937 236.926,186.937 238.5,186.5 Z"/></g>
<g><path style="opacity:0.975" fill="#eb4723" d="M 485.5,227.5 C 494.961,226.69 503.627,228.857 511.5,234C 512.574,234.739 513.241,235.739 513.5,237C 508.272,245.293 502.438,253.126 496,260.5C 487.433,254.962 479.1,255.295 471,261.5C 469.414,263.67 468.08,266.004 467,268.5C 465.55,292.456 465.05,316.456 465.5,340.5C 454.833,340.5 444.167,340.5 433.5,340.5C 433.5,303.5 433.5,266.5 433.5,229.5C 444.167,229.5 454.833,229.5 465.5,229.5C 465.334,233.846 465.501,238.179 466,242.5C 470.645,235.013 477.145,230.013 485.5,227.5 Z"/></g>
<g><path style="opacity:0.971" fill="#eb4723" d="M 561.5,227.5 C 580.36,225.172 596.193,230.839 609,244.5C 612.15,249.804 614.483,255.471 616,261.5C 617.548,274.791 617.881,288.125 617,301.5C 615.082,323.082 603.582,336.249 582.5,341C 564.937,344.646 548.937,341.313 534.5,331C 527.808,323.782 523.641,315.282 522,305.5C 521.333,291.5 521.333,277.5 522,263.5C 526.472,241.857 539.639,229.857 561.5,227.5 Z M 565.5,256.5 C 577.593,255.444 584.76,260.777 587,272.5C 587.667,280.833 587.667,289.167 587,297.5C 585.5,307.498 579.667,312.831 569.5,313.5C 560.669,313.165 554.836,308.832 552,300.5C 551.333,290.167 551.333,279.833 552,269.5C 553.894,262.328 558.394,257.995 565.5,256.5 Z"/></g>
</svg>
