<?xml version="1.0" encoding="UTF-8"?>
<!DOCTYPE svg PUBLIC "-//W3C//DTD SVG 1.1//EN" "http://www.w3.org/Graphics/SVG/1.1/DTD/svg11.dtd">
<svg xmlns="http://www.w3.org/2000/svg" version="1.1" width="1200px" height="628px" style="shape-rendering:geometricPrecision; text-rendering:geometricPrecision; image-rendering:optimizeQuality; fill-rule:evenodd; clip-rule:evenodd" xmlns:xlink="http://www.w3.org/1999/xlink">
<g><path style="opacity:1" fill="#0242a5" d="M 164.5,278.5 C 153.952,286.528 142.952,294.028 131.5,301C 109.956,309.24 89.9557,306.573 71.5,293C 66.6025,288.271 61.9359,283.438 57.5,278.5C 57.3335,266.495 57.5001,254.495 58,242.5C 60.2959,232.869 66.1292,226.369 75.5,223C 88.1168,218.758 100.117,220.092 111.5,227C 129.339,244.006 147.006,261.173 164.5,278.5 Z"/></g>
<g><path style="opacity:1" fill="#02cbd8" d="M 206.5,320.5 C 191.087,335.617 175.587,350.617 160,365.5C 159.536,366.094 159.369,366.761 159.5,367.5C 148.368,378.131 137.368,388.965 126.5,400C 113.406,408.262 100.072,408.595 86.5,401C 77.7219,394.19 69.2219,387.023 61,379.5C 59.7246,377.283 58.7246,374.949 58,372.5C 57.5,341.168 57.3334,309.835 57.5,278.5C 61.9359,283.438 66.6025,288.271 71.5,293C 89.9557,306.573 109.956,309.24 131.5,301C 142.952,294.028 153.952,286.528 164.5,278.5C 185.126,263.848 206.126,249.681 227.5,236C 240.833,231.466 252.333,234.299 262,244.5C 266.667,251.167 266.667,257.833 262,264.5C 243.298,283.035 224.798,301.701 206.5,320.5 Z"/></g>
<g><path style="opacity:1" fill="#0f46a6" d="M 623.5,239.5 C 632.173,239.334 640.84,239.5 649.5,240C 658.626,242.095 660.792,247.261 656,255.5C 654.421,257.041 652.587,258.208 650.5,259C 646.323,259.579 642.323,260.579 638.5,262C 634.179,262.499 629.846,262.666 625.5,262.5C 625.589,259.061 626.922,256.228 629.5,254C 634.08,252.617 638.747,251.617 643.5,251C 643.957,250.586 644.291,250.086 644.5,249.5C 636.833,248.833 629.167,248.167 621.5,247.5C 622.295,244.856 622.962,242.189 623.5,239.5 Z"/></g>
<g><path style="opacity:0.998" fill="#0a44a6" d="M 1136.5,243.5 C 1138.52,246.368 1140.19,249.535 1141.5,253C 1132.03,256.287 1122.36,259.121 1112.5,261.5C 1111.83,261.167 1111.17,260.833 1110.5,260.5C 1109.69,258.085 1108.69,255.751 1107.5,253.5C 1117.17,250.004 1126.84,246.67 1136.5,243.5 Z"/></g>
<g><path style="opacity:0.999" fill="#0543a6" d="M 738.5,262.5 C 758.52,262.243 778.52,262.743 798.5,264C 807.314,264.55 812.647,269.05 814.5,277.5C 812.193,291.202 809.693,304.869 807,318.5C 801.781,328.036 793.615,332.869 782.5,333C 759.5,333.667 736.5,333.667 713.5,333C 705.552,333.11 699.385,329.944 695,323.5C 695.724,306.874 698.391,290.54 703,274.5C 705.989,270.509 709.822,267.676 714.5,266C 722.538,264.175 730.538,263.008 738.5,262.5 Z M 729.5,280.5 C 748.88,280.179 768.213,280.513 787.5,281.5C 787.428,292.28 785.928,302.946 783,313.5C 782.25,314.126 781.416,314.626 780.5,315C 760.833,315.667 741.167,315.667 721.5,315C 721.511,304.083 723.011,293.25 726,282.5C 727.302,281.915 728.469,281.249 729.5,280.5 Z"/></g>
<g><path style="opacity:1" fill="#0643a6" d="M 332.5,263.5 C 341.833,263.5 351.167,263.5 360.5,263.5C 358.349,274.387 356.682,285.054 355.5,295.5C 371.833,285 388.167,274.5 404.5,264C 416.833,263.333 429.167,263.333 441.5,264C 423.5,275 405.5,286 387.5,297C 403.5,309 419.5,321 435.5,333C 422.167,333.667 408.833,333.667 395.5,333C 382,321.5 368.5,310 355,298.5C 352.247,309.667 349.914,321 348,332.5C 338.917,333.485 329.751,333.818 320.5,333.5C 324.629,310.189 328.629,286.856 332.5,263.5 Z"/></g>
<g><path style="opacity:1" fill="#0443a6" d="M 453.5,263.5 C 462.5,263.5 471.5,263.5 480.5,263.5C 479.275,271.85 477.942,280.184 476.5,288.5C 495.167,288.5 513.833,288.5 532.5,288.5C 533.942,280.184 535.275,271.85 536.5,263.5C 545.833,263.5 555.167,263.5 564.5,263.5C 560.49,286.562 556.156,309.562 551.5,332.5C 542.525,333.498 533.525,333.832 524.5,333.5C 525.703,324.816 527.037,316.149 528.5,307.5C 509.833,307.5 491.167,307.5 472.5,307.5C 471.037,316.146 469.704,324.813 468.5,333.5C 459.167,333.5 449.833,333.5 440.5,333.5C 444.583,310.088 448.916,286.754 453.5,263.5 Z"/></g>
<g><path style="opacity:1" fill="#0843a6" d="M 878.5,263.5 C 912.5,263.5 946.5,263.5 980.5,263.5C 979.372,269.142 978.372,274.809 977.5,280.5C 965.167,280.5 952.833,280.5 940.5,280.5C 937.63,298.185 934.63,315.852 931.5,333.5C 922.143,333.832 912.81,333.498 903.5,332.5C 906.833,315.5 910.167,298.5 913.5,281.5C 901.185,280.501 888.851,280.168 876.5,280.5C 877.058,274.82 877.725,269.153 878.5,263.5 Z"/></g>
<g><path style="opacity:0.998" fill="#0543a6" d="M 987.5,263.5 C 996.833,263.5 1006.17,263.5 1015.5,263.5C 1014.21,271.768 1012.54,279.935 1010.5,288C 1029.5,288.5 1048.5,288.667 1067.5,288.5C 1068.51,280.114 1069.84,271.781 1071.5,263.5C 1080.84,263.334 1090.17,263.5 1099.5,264C 1094.85,287.078 1090.52,310.245 1086.5,333.5C 1077.14,333.832 1067.81,333.498 1058.5,332.5C 1060.17,324.5 1061.83,316.5 1063.5,308.5C 1044.85,307.5 1026.18,307.167 1007.5,307.5C 1006.1,316.079 1004.43,324.579 1002.5,333C 993.506,333.5 984.506,333.666 975.5,333.5C 979.371,310.144 983.371,286.811 987.5,263.5 Z"/></g>
<g><path style="opacity:1" fill="#0743a5" d="M 1107.5,263.5 C 1116.86,263.168 1126.19,263.502 1135.5,264.5C 1131.17,287.167 1126.83,309.833 1122.5,332.5C 1113.52,333.498 1104.52,333.832 1095.5,333.5C 1099.37,310.148 1103.37,286.815 1107.5,263.5 Z"/></g>
<g><path style="opacity:1" fill="#0442a5" d="M 616.5,263.5 C 628.5,263.5 640.5,263.5 652.5,263.5C 663.21,286.589 674.21,309.589 685.5,332.5C 675.517,333.666 665.517,333.832 655.5,333C 653.5,329.333 651.5,325.667 649.5,322C 632.167,321.333 614.833,321.333 597.5,322C 594.167,325.667 590.833,329.333 587.5,333C 577.483,333.832 567.483,333.666 557.5,332.5C 577.411,309.655 597.078,286.655 616.5,263.5 Z M 630.5,282.5 C 634.121,289.741 637.787,297.075 641.5,304.5C 631.517,305.666 621.517,305.832 611.5,305C 617.722,297.376 624.056,289.876 630.5,282.5 Z"/></g>
<g><path style="opacity:1" fill="#0342a5" d="M 206.5,320.5 C 225.159,338.659 243.659,356.992 262,375.5C 267.79,389.767 263.29,399.601 248.5,405C 242.167,407 235.833,407 229.5,405C 206.012,392.757 182.679,380.257 159.5,367.5C 159.369,366.761 159.536,366.094 160,365.5C 175.587,350.617 191.087,335.617 206.5,320.5 Z"/></g>
<g><path style="opacity:1" fill="#1eced8" d="M 572.5,344.5 C 589.17,344.333 605.837,344.5 622.5,345C 626.5,349 630.5,353 634.5,357C 632.185,367.078 630.185,377.244 628.5,387.5C 623.5,387.5 618.5,387.5 613.5,387.5C 614.91,378.784 616.577,370.117 618.5,361.5C 617.687,360.186 616.687,359.019 615.5,358C 604.5,357.333 593.5,357.333 582.5,358C 580.403,367.408 578.57,376.908 577,386.5C 571.886,387.804 566.719,387.804 561.5,386.5C 564.061,373.526 566.561,360.526 569,347.5C 570.145,346.364 571.312,345.364 572.5,344.5 Z"/></g>
<g><path style="opacity:1" fill="#1eced9" d="M 802.5,344.5 C 819.17,344.333 835.837,344.5 852.5,345C 856.5,349 860.5,353 864.5,357C 862.185,367.078 860.185,377.244 858.5,387.5C 853.5,387.5 848.5,387.5 843.5,387.5C 844.91,378.783 846.577,370.116 848.5,361.5C 847.687,360.186 846.687,359.019 845.5,358C 834.5,357.333 823.5,357.333 812.5,358C 810.403,367.408 808.57,376.908 807,386.5C 801.886,387.804 796.719,387.804 791.5,386.5C 794.061,373.526 796.561,360.526 799,347.5C 800.145,346.364 801.312,345.364 802.5,344.5 Z"/></g>
<g><path style="opacity:1" fill="#1eceda" d="M 896.5,344.5 C 917.5,344.5 938.5,344.5 959.5,344.5C 959.621,348.825 958.954,352.991 957.5,357C 888.176,357.834 888.176,359.001 957.5,360.5C 956.402,364.423 955.735,368.423 955.5,372.5C 938.163,372.333 920.83,372.5 903.5,373C 903.043,373.414 902.709,373.914 902.5,374.5C 919.821,375.5 937.154,375.833 954.5,375.5C 953.705,379.476 953.038,383.476 952.5,387.5C 930.788,387.822 909.121,387.489 887.5,386.5C 886.348,383.894 886.182,381.227 887,378.5C 888.846,367.754 891.013,357.087 893.5,346.5C 894.602,345.824 895.602,345.158 896.5,344.5 Z"/></g>
<g><path style="opacity:1" fill="#19cdd8" d="M 478.5,344.5 C 495.17,344.333 511.837,344.5 528.5,345C 532.522,349.022 536.522,353.022 540.5,357C 538.721,366.174 536.887,375.341 535,384.5C 534.097,385.701 532.931,386.535 531.5,387C 511.167,387.667 490.833,387.667 470.5,387C 469.196,386.196 468.529,385.029 468.5,383.5C 470.666,371.835 472.833,360.168 475,348.5C 475.69,346.65 476.856,345.316 478.5,344.5 Z M 488.5,357.5 C 499.505,357.333 510.505,357.5 521.5,358C 522.99,358.745 523.99,359.912 524.5,361.5C 523.557,366.053 522.557,370.553 521.5,375C 509.505,375.5 497.505,375.667 485.5,375.5C 486.244,369.449 487.244,363.449 488.5,357.5 Z"/></g>
<g><path style="opacity:1" fill="#0cccd8" d="M 663.5,344.5 C 668.544,344.173 673.544,344.506 678.5,345.5C 676.5,355.167 674.5,364.833 672.5,374.5C 689.821,375.5 707.154,375.833 724.5,375.5C 723.705,379.476 723.038,383.476 722.5,387.5C 700.788,387.822 679.121,387.489 657.5,386.5C 656.348,383.894 656.182,381.227 657,378.5C 659.065,367.102 661.232,355.769 663.5,344.5 Z"/></g>
<g><path style="opacity:1" fill="#0dcdd7" d="M 756.5,344.5 C 761.5,344.5 766.5,344.5 771.5,344.5C 769.491,358.885 767.158,373.219 764.5,387.5C 759.5,387.5 754.5,387.5 749.5,387.5C 751.963,373.186 754.296,358.853 756.5,344.5 Z"/></g>
</svg>
