<?xml version="1.0" encoding="UTF-8"?>
<!DOCTYPE svg PUBLIC "-//W3C//DTD SVG 1.1//EN" "http://www.w3.org/Graphics/SVG/1.1/DTD/svg11.dtd">
<svg xmlns="http://www.w3.org/2000/svg" version="1.1" width="430px" height="258px" style="shape-rendering:geometricPrecision; text-rendering:geometricPrecision; image-rendering:optimizeQuality; fill-rule:evenodd; clip-rule:evenodd" xmlns:xlink="http://www.w3.org/1999/xlink">
<g><path style="opacity:0.945" fill="#ea252d" d="M 42.5,72.5 C 49.175,72.3337 55.8417,72.5004 62.5,73C 64.6269,82.4622 70.2936,88.7955 79.5,92C 83.6645,92.8128 87.6645,92.3128 91.5,90.5C 92.5,91 93.5,91.5 94.5,92C 97.7084,96.2471 100.542,100.747 103,105.5C 103.814,107.902 103.647,110.235 102.5,112.5C 95.5873,118.855 93.7539,126.522 97,135.5C 98.6255,138.128 100.626,140.461 103,142.5C 102.589,150.178 99.7558,157.011 94.5,163C 83.5359,160.211 74.3692,163.045 67,171.5C 65.6011,174.363 64.6011,177.363 64,180.5C 61.3333,183.167 58.6667,183.167 56,180.5C 55.3333,173.5 55.3333,166.5 56,159.5C 60.685,156.486 65.5183,153.653 70.5,151C 82.9704,138.591 84.8037,124.758 76,109.5C 61.2549,94.3211 45.9216,93.6545 30,107.5C 19.3622,122.346 20.1956,136.512 32.5,150C 36.6581,153.28 41.3247,155.613 46.5,157C 47.1258,157.75 47.6258,158.584 48,159.5C 48.8132,167.08 48.6466,174.58 47.5,182C 45.4325,182.687 43.4325,182.52 41.5,181.5C 39.695,174.713 36.0283,169.213 30.5,165C 27.3313,163.541 23.998,162.708 20.5,162.5C 16.8441,163.286 13.1775,163.453 9.5,163C 5.96227,157.59 2.96227,151.923 0.5,146C 3.33708,142.134 5.83708,137.967 8,133.5C 10.3138,124.772 7.98047,117.439 1,111.5C 0.257133,108.217 0.9238,105.217 3,102.5C 5,99.1667 7,95.8333 9,92.5C 10.0852,91.7069 11.2519,91.0402 12.5,90.5C 20.5356,93.7456 27.8689,92.5789 34.5,87C 37.6089,82.2714 40.2755,77.4381 42.5,72.5 Z M 48.5,115.5 C 52.1817,115.335 55.8484,115.501 59.5,116C 63.5,126.333 60.1667,130 49.5,127C 48.5399,123.27 48.2065,119.437 48.5,115.5 Z M 40.5,128.5 C 46.1132,127.079 48.2799,129.079 47,134.5C 40.423,137.088 38.2563,135.088 40.5,128.5 Z M 49.5,136.5 C 53.35,136.701 54.35,138.534 52.5,142C 48.5369,142.118 47.5369,140.284 49.5,136.5 Z"/></g>
<g><path style="opacity:0.92" fill="#76787a" d="M 265.5,97.5 C 268.617,97.6423 271.117,98.9756 273,101.5C 278.933,113.089 285.266,124.422 292,135.5C 298.333,124.167 304.667,112.833 311,101.5C 313.791,97.4463 317.125,96.7797 321,99.5C 322.14,108.404 322.64,117.404 322.5,126.5C 322.333,134.833 322.167,143.167 322,151.5C 318.754,156.133 315.088,156.466 311,152.5C 310.667,143.5 310.333,134.5 310,125.5C 305.5,133.833 301,142.167 296.5,150.5C 293.297,153.122 290.13,153.122 287,150.5C 282.667,142.5 278.333,134.5 274,126.5C 273.667,134.833 273.333,143.167 273,151.5C 269.822,156.371 266.155,156.704 262,152.5C 261.333,135.167 261.333,117.833 262,100.5C 263.145,99.3636 264.312,98.3636 265.5,97.5 Z"/></g>
<g><path style="opacity:0.9" fill="#76787a" d="M 387.5,97.5 C 395.53,96.5437 402.363,98.877 408,104.5C 410.648,112.847 407.814,115.347 399.5,112C 395.144,107.559 390.644,107.392 386,111.5C 385.313,113.92 385.813,116.087 387.5,118C 395.984,120.49 403.484,124.657 410,130.5C 414.548,143.566 410.048,151.732 396.5,155C 384.589,157.213 376.255,152.88 371.5,142C 373.459,137.21 376.792,136.21 381.5,139C 385.768,144.535 391.102,145.868 397.5,143C 401.404,139.402 401.07,136.069 396.5,133C 390.682,130.59 385.015,127.923 379.5,125C 371.577,117.032 371.577,109.032 379.5,101C 382.158,99.522 384.825,98.3554 387.5,97.5 Z"/></g>
<g><path style="opacity:0.933" fill="#76787a" d="M 332.5,98.5 C 343.505,98.3335 354.505,98.5002 365.5,99C 368.167,102 368.167,105 365.5,108C 357.507,108.5 349.507,108.666 341.5,108.5C 341.5,112.833 341.5,117.167 341.5,121.5C 346.844,121.334 352.177,121.501 357.5,122C 361.5,125 361.5,128 357.5,131C 352.177,131.499 346.844,131.666 341.5,131.5C 341.5,135.833 341.5,140.167 341.5,144.5C 349.507,144.334 357.507,144.5 365.5,145C 369.085,147.528 369.418,150.528 366.5,154C 355.167,154.667 343.833,154.667 332.5,154C 331.667,153.167 330.833,152.333 330,151.5C 329.333,135.167 329.333,118.833 330,102.5C 330.662,101.016 331.496,99.6828 332.5,98.5 Z"/></g>
<g><path style="opacity:0.895" fill="#ea252d" d="M 178.5,99.5 C 181.365,99.0548 183.865,99.7215 186,101.5C 186.333,111.167 186.667,120.833 187,130.5C 190.71,124.913 194.543,119.413 198.5,114C 205.667,111.833 208.167,114.333 206,121.5C 203.361,125.639 200.528,129.639 197.5,133.5C 201.192,138.025 204.692,142.692 208,147.5C 208.584,154.125 205.751,156.292 199.5,154C 195.212,148.59 191.045,143.09 187,137.5C 186.667,142.5 186.333,147.5 186,152.5C 182.171,156.663 178.837,156.329 176,151.5C 175.333,135.5 175.333,119.5 176,103.5C 176.662,102.016 177.496,100.683 178.5,99.5 Z"/></g>
<g><path style="opacity:0.934" fill="#ea252d" d="M 45.5,103.5 C 59.0438,101.521 68.8771,106.521 75,118.5C 78.8125,141.688 68.9791,152.522 45.5,151C 31.1958,145.228 25.6958,134.728 29,119.5C 32.4377,111.893 37.9377,106.56 45.5,103.5 Z M 48.5,115.5 C 48.2065,119.437 48.5399,123.27 49.5,127C 60.1667,130 63.5,126.333 59.5,116C 55.8484,115.501 52.1817,115.335 48.5,115.5 Z M 40.5,128.5 C 38.2563,135.088 40.423,137.088 47,134.5C 48.2799,129.079 46.1132,127.079 40.5,128.5 Z M 49.5,136.5 C 47.5369,140.284 48.5369,142.118 52.5,142C 54.35,138.534 53.35,136.701 49.5,136.5 Z"/></g>
<g><path style="opacity:0.921" fill="#ea252d" d="M 140.5,111.5 C 146.581,111.104 152.248,112.437 157.5,115.5C 160.703,112.878 163.87,112.878 167,115.5C 167.822,128.409 167.655,141.242 166.5,154C 163.055,156.222 160.055,155.722 157.5,152.5C 145.145,159.403 134.645,157.403 126,146.5C 118.802,129.587 123.635,117.92 140.5,111.5 Z M 142.5,122.5 C 153.513,122.057 158.18,127.223 156.5,138C 153.745,144.875 148.745,147.208 141.5,145C 134.06,140.377 132.56,134.211 137,126.5C 138.812,125.023 140.645,123.69 142.5,122.5 Z"/></g>
<g><path style="opacity:0.91" fill="#ea252d" d="M 227.5,111.5 C 234.094,110.644 239.927,112.311 245,116.5C 245.374,115.584 245.874,114.75 246.5,114C 249.099,113.231 251.599,113.398 254,114.5C 255.107,121.09 255.607,127.757 255.5,134.5C 255.333,140.167 255.167,145.833 255,151.5C 252.039,156.419 248.539,156.752 244.5,152.5C 231.239,159.803 220.406,157.137 212,144.5C 206.981,128.544 212.147,117.544 227.5,111.5 Z M 229.5,122.5 C 241.993,122.483 246.493,128.483 243,140.5C 237.914,146.116 232.081,146.949 225.5,143C 219.458,134.755 220.791,127.922 229.5,122.5 Z"/></g>
<g><path style="opacity:0.611" fill="#76787a" d="M 417.5,141.5 C 427.174,140.849 429.84,144.849 425.5,153.5C 419.421,156.159 415.754,154.326 414.5,148C 414.84,145.489 415.84,143.322 417.5,141.5 Z M 417.5,145.5 C 418.788,147.035 418.788,148.701 417.5,150.5C 416.334,148.833 416.334,147.166 417.5,145.5 Z M 424.5,145.5 C 426.898,146.882 427.065,148.549 425,150.5C 423.372,149.038 423.205,147.372 424.5,145.5 Z"/></g>
</svg>
