<?xml version="1.0" encoding="UTF-8"?>
<!DOCTYPE svg PUBLIC "-//W3C//DTD SVG 1.1//EN" "http://www.w3.org/Graphics/SVG/1.1/DTD/svg11.dtd">
<svg xmlns="http://www.w3.org/2000/svg" version="1.1" width="2084px" height="1250px" style="shape-rendering:geometricPrecision; text-rendering:geometricPrecision; image-rendering:optimizeQuality; fill-rule:evenodd; clip-rule:evenodd" xmlns:xlink="http://www.w3.org/1999/xlink">
<g><path style="opacity:0.932" fill="#18a1a5" d="M 867.5,467.5 C 874.841,467.334 882.174,467.5 889.5,468C 890.517,469.049 890.684,470.216 890,471.5C 885.5,477.333 881,483.167 876.5,489C 868.841,489.5 861.174,489.666 853.5,489.5C 853.343,488.127 853.51,486.793 854,485.5C 858.717,479.623 863.217,473.623 867.5,467.5 Z"/></g>
<g><path style="opacity:0.932" fill="#199eb7" d="M 910.5,467.5 C 909.752,474.809 909.418,482.142 909.5,489.5C 902.468,489.83 895.468,489.497 888.5,488.5C 888.291,487.914 887.957,487.414 887.5,487C 892.5,480.667 897.5,474.333 902.5,468C 905.146,467.503 907.813,467.336 910.5,467.5 Z"/></g>
<g><path style="opacity:0.909" fill="#1a9dbe" d="M 910.5,467.5 C 915.214,467.173 919.88,467.507 924.5,468.5C 924.709,469.086 925.043,469.586 925.5,470C 920.984,477.214 915.651,483.714 909.5,489.5C 909.418,482.142 909.752,474.809 910.5,467.5 Z"/></g>
<g><path style="opacity:0.911" fill="#1b9bca" d="M 941.5,467.5 C 941.683,474.868 941.35,482.201 940.5,489.5C 935.156,489.666 929.823,489.499 924.5,489C 923.978,488.439 923.645,487.772 923.5,487C 927.538,481.096 931.705,475.262 936,469.5C 937.444,467.845 939.278,467.178 941.5,467.5 Z"/></g>
<g><path style="opacity:0.921" fill="#1b9ad2" d="M 941.5,467.5 C 947.833,467.5 954.167,467.5 960.5,467.5C 960.657,468.873 960.49,470.207 960,471.5C 955.5,477.333 951,483.167 946.5,489C 944.527,489.495 942.527,489.662 940.5,489.5C 941.35,482.201 941.683,474.868 941.5,467.5 Z"/></g>
<g><path style="opacity:0.977" fill="#1893d1" d="M 997.5,467.5 C 996.821,498.179 995.821,528.846 994.5,559.5C 975.833,559.5 957.167,559.5 938.5,559.5C 938.677,549.494 939.01,539.494 939.5,529.5C 946.841,529.666 954.174,529.5 961.5,529C 971.5,515.667 981.5,502.333 991.5,489C 980.167,488.667 968.833,488.333 957.5,488C 962.257,481.154 967.257,474.488 972.5,468C 980.827,467.5 989.16,467.334 997.5,467.5 Z"/></g>
<g><path style="opacity:0.986" fill="#148ccc" d="M 997.5,467.5 C 1006.17,467.5 1014.83,467.5 1023.5,467.5C 1022.21,498.187 1020.88,528.854 1019.5,559.5C 1011.17,559.5 1002.83,559.5 994.5,559.5C 995.821,528.846 996.821,498.179 997.5,467.5 Z"/></g>
<g><path style="opacity:0.987" fill="#1185c7" d="M 1023.5,467.5 C 1031.84,468.046 1040.18,468.713 1048.5,469.5C 1047.22,499.489 1046.22,529.489 1045.5,559.5C 1036.83,559.5 1028.17,559.5 1019.5,559.5C 1020.88,528.854 1022.21,498.187 1023.5,467.5 Z"/></g>
<g><path style="opacity:0.987" fill="#0e80c3" d="M 1048.5,469.5 C 1056.4,471.059 1064.07,473.393 1071.5,476.5C 1070.68,505.175 1069.68,533.841 1068.5,562.5C 1061.12,559.805 1053.45,558.805 1045.5,559.5C 1046.22,529.489 1047.22,499.489 1048.5,469.5 Z"/></g>
<g><path style="opacity:0.979" fill="#0a7abe" d="M 1071.5,476.5 C 1101.92,490.008 1113.09,513.008 1105,545.5C 1101.55,554.406 1097.55,563.073 1093,571.5C 1078.42,596.339 1063.08,620.673 1047,644.5C 1046.33,643.5 1046.33,642.5 1047,641.5C 1056.66,625.176 1065,608.176 1072,590.5C 1074.17,584.316 1074.83,577.983 1074,571.5C 1073.16,567.843 1071.33,564.843 1068.5,562.5C 1069.68,533.841 1070.68,505.175 1071.5,476.5 Z"/></g>
<g><path style="opacity:0.996" fill="#15a586" d="M 807.5,500.5 C 815.174,500.334 822.841,500.5 830.5,501C 830.957,501.414 831.291,501.914 831.5,502.5C 827.833,507.167 824.167,511.833 820.5,516.5C 812.855,517.665 805.188,517.831 797.5,517C 796.549,516.282 796.383,515.449 797,514.5C 800.752,509.982 804.252,505.316 807.5,500.5 Z"/></g>
<g><path style="opacity:0.995" fill="#17a399" d="M 842.5,500.5 C 850.167,500.5 857.833,500.5 865.5,500.5C 865.657,501.873 865.49,503.207 865,504.5C 861.469,508.397 858.303,512.564 855.5,517C 847.507,517.5 839.507,517.666 831.5,517.5C 834.392,511.396 838.059,505.729 842.5,500.5 Z"/></g>
<g><path style="opacity:0.972" fill="#1a9dbd" d="M 919.5,500.5 C 918.708,506.13 918.375,511.797 918.5,517.5C 913.156,517.666 907.823,517.499 902.5,517C 902.043,516.586 901.709,516.086 901.5,515.5C 905.288,510.756 908.955,505.923 912.5,501C 914.81,500.503 917.143,500.337 919.5,500.5 Z"/></g>
<g><path style="opacity:0.869" fill="#1a9cc6" d="M 919.5,500.5 C 924.844,500.334 930.177,500.501 935.5,501C 935.957,501.414 936.291,501.914 936.5,502.5C 932.712,507.244 929.045,512.077 925.5,517C 923.19,517.497 920.857,517.663 918.5,517.5C 918.375,511.797 918.708,506.13 919.5,500.5 Z"/></g>
<g><path style="opacity:0.999" fill="#1b99d4" d="M 947.5,500.5 C 955.5,500.5 963.5,500.5 971.5,500.5C 969.235,506.843 965.568,512.343 960.5,517C 952.841,517.5 945.174,517.666 937.5,517.5C 937.343,516.127 937.51,514.793 938,513.5C 941.796,509.551 944.963,505.217 947.5,500.5 Z"/></g>
<g><path style="opacity:0.901" fill="#18a0ab" d="M 876.5,500.5 C 884.5,500.5 892.5,500.5 900.5,500.5C 898.235,506.843 894.568,512.343 889.5,517C 881.841,517.5 874.174,517.666 866.5,517.5C 866.343,516.127 866.51,514.793 867,513.5C 870.796,509.551 873.963,505.217 876.5,500.5 Z"/></g>
<g><path style="opacity:0.96" fill="#16a48d" d="M 816.5,559.5 C 817.411,550.874 817.745,542.208 817.5,533.5C 818.141,532.518 818.807,531.518 819.5,530.5C 827.472,529.502 835.472,529.169 843.5,529.5C 843.509,531.308 843.009,532.975 842,534.5C 836.167,542.167 830.333,549.833 824.5,557.5C 822.149,559.229 819.482,559.896 816.5,559.5 Z"/></g>
<g><path style="opacity:0.968" fill="#18a1a1" d="M 852.5,559.5 C 853.166,550.515 853.499,541.515 853.5,532.5C 853.414,531.504 853.748,530.671 854.5,530C 862.493,529.5 870.493,529.334 878.5,529.5C 872.56,539.963 865.56,549.797 857.5,559C 855.866,559.494 854.199,559.66 852.5,559.5 Z"/></g>
<g><path style="opacity:0.955" fill="#199fb0" d="M 897.5,529.5 C 897.773,537.888 897.44,546.221 896.5,554.5C 895.883,556.229 894.883,557.729 893.5,559C 886.167,559.667 878.833,559.667 871.5,559C 870.978,558.439 870.645,557.772 870.5,557C 876.767,547.729 883.433,538.729 890.5,530C 892.81,529.503 895.143,529.337 897.5,529.5 Z"/></g>
<g><path style="opacity:0.948" fill="#199eb8" d="M 897.5,529.5 C 902.844,529.334 908.177,529.501 913.5,530C 913.957,530.414 914.291,530.914 914.5,531.5C 908.445,539.21 902.445,546.876 896.5,554.5C 897.44,546.221 897.773,537.888 897.5,529.5 Z"/></g>
<g><path style="opacity:0.974" fill="#1b9bca" d="M 927.5,529.5 C 931.5,529.5 935.5,529.5 939.5,529.5C 939.01,539.494 938.677,549.494 938.5,559.5C 934.5,559.5 930.5,559.5 926.5,559.5C 927.424,549.539 927.758,539.539 927.5,529.5 Z"/></g>
<g><path style="opacity:0.928" fill="#1a9cc2" d="M 927.5,529.5 C 927.758,539.539 927.424,549.539 926.5,559.5C 919.167,559.5 911.833,559.5 904.5,559.5C 904.351,558.448 904.517,557.448 905,556.5C 911.576,548.346 917.909,540.013 924,531.5C 924.816,530.177 925.983,529.511 927.5,529.5 Z"/></g>
<g><path style="opacity:0.919" fill="#17a398" d="M 853.5,532.5 C 853.499,541.515 853.166,550.515 852.5,559.5C 846.824,559.666 841.157,559.499 835.5,559C 834.978,558.439 834.645,557.772 834.5,557C 840.683,548.659 847.016,540.492 853.5,532.5 Z"/></g>
<g><path style="opacity:0.914" fill="#15a686" d="M 817.5,533.5 C 817.745,542.208 817.411,550.874 816.5,559.5C 811.125,559.828 805.792,559.495 800.5,558.5C 800.291,557.914 799.957,557.414 799.5,557C 805.364,548.982 811.364,541.148 817.5,533.5 Z"/></g>
<g><path style="opacity:0.991" fill="#12af4b" d="M 335.5,582.5 C 475.167,582.5 614.833,582.5 754.5,582.5C 742.495,635.52 730.329,688.52 718,741.5C 709.948,763.952 694.115,777.119 670.5,781C 529.832,781.833 389.165,781.667 248.5,780.5C 260.809,727.457 273.309,674.457 286,621.5C 295.386,599.262 311.886,586.262 335.5,582.5 Z"/></g>
<g><path style="opacity:0.979" fill="#245caa" d="M 1243.5,586.5 C 1259.17,586.5 1274.83,586.5 1290.5,586.5C 1285.84,608.124 1281.67,629.791 1278,651.5C 1295.32,642.029 1313.82,638.529 1333.5,641C 1354.39,643.603 1365.05,655.437 1365.5,676.5C 1359.6,710.325 1352.94,743.991 1345.5,777.5C 1329.83,777.667 1314.16,777.5 1298.5,777C 1305.21,747.117 1311.54,717.117 1317.5,687C 1317.13,683.545 1315.8,680.545 1313.5,678C 1301.96,673.358 1290.62,674.025 1279.5,680C 1275.1,681.777 1271.6,684.61 1269,688.5C 1262.51,718.113 1256.34,747.78 1250.5,777.5C 1234.82,777.833 1219.15,777.499 1203.5,776.5C 1217.22,713.241 1230.55,649.908 1243.5,586.5 Z"/></g>
<g><path style="opacity:0.979" fill="#245caa" d="M 1703.5,586.5 C 1719.18,586.167 1734.85,586.501 1750.5,587.5C 1743.2,619.818 1736.37,652.152 1730,684.5C 1746.59,671.12 1763.09,657.62 1779.5,644C 1797.5,643.333 1815.5,643.333 1833.5,644C 1811.69,662.313 1790.02,680.813 1768.5,699.5C 1781.71,725.412 1795.04,751.245 1808.5,777C 1791.82,777.833 1775.16,777.666 1758.5,776.5C 1750.16,759.158 1741.83,741.825 1733.5,724.5C 1728.52,728.311 1723.69,732.311 1719,736.5C 1715.59,750.057 1712.76,763.724 1710.5,777.5C 1694.83,777.5 1679.17,777.5 1663.5,777.5C 1676.83,713.833 1690.17,650.167 1703.5,586.5 Z"/></g>
<g><path style="opacity:0.976" fill="#245caa" d="M 1146.5,592.5 C 1170.9,590.175 1194.56,593.175 1217.5,601.5C 1215.65,615.113 1212.98,628.78 1209.5,642.5C 1186.3,632.314 1162.3,629.814 1137.5,635C 1117.76,641.072 1104.59,653.905 1098,673.5C 1092.2,688.763 1090.53,704.429 1093,720.5C 1096.23,729.401 1102.4,735.234 1111.5,738C 1125.71,741.394 1140.04,742.061 1154.5,740C 1167.1,738.096 1179.44,735.429 1191.5,732C 1188.42,744.741 1185.58,757.574 1183,770.5C 1182.5,771.667 1181.67,772.5 1180.5,773C 1150.4,781.688 1120.07,782.688 1089.5,776C 1059.25,765.544 1043.92,744.211 1043.5,712C 1044.78,674.787 1058.44,643.12 1084.5,617C 1102.82,602.84 1123.48,594.673 1146.5,592.5 Z"/></g>
<g><path style="opacity:0.981" fill="#245caa" d="M 809.5,595.5 C 825.167,595.5 840.833,595.5 856.5,595.5C 843.705,656.14 831.039,716.807 818.5,777.5C 802.833,777.5 787.167,777.5 771.5,777.5C 784.295,716.86 796.961,656.193 809.5,595.5 Z"/></g>
<g><path style="opacity:0.981" fill="#245caa" d="M 884.5,595.5 C 916.168,595.333 947.835,595.5 979.5,596C 1016.02,600.518 1034.02,621.185 1033.5,658C 1032.62,687.348 1025.12,714.848 1011,740.5C 995.901,762.812 974.734,774.978 947.5,777C 913.835,777.5 880.168,777.667 846.5,777.5C 858.851,716.762 871.518,656.095 884.5,595.5 Z M 923.5,631.5 C 937.171,631.333 950.837,631.5 964.5,632C 979.847,633.345 987.514,641.678 987.5,657C 986.102,680.32 980.269,702.487 970,723.5C 962.898,733.806 953.064,739.639 940.5,741C 927.171,741.5 913.837,741.667 900.5,741.5C 908.167,704.833 915.833,668.167 923.5,631.5 Z"/></g>
<g><path style="opacity:1" fill="#4dc378" d="M 380.5,631.5 C 407.328,630.502 434.328,630.169 461.5,630.5C 461.737,631.791 461.404,632.791 460.5,633.5C 434.188,631.509 407.521,630.842 380.5,631.5 Z"/></g>
<g><path style="opacity:1" fill="#fdfefd" d="M 380.5,631.5 C 407.521,630.842 434.188,631.509 460.5,633.5C 457.478,643.357 451.145,650.19 441.5,654C 420.209,655.122 398.876,655.956 377.5,656.5C 375.693,662.062 374.36,667.728 373.5,673.5C 394.5,673.5 415.5,673.5 436.5,673.5C 434.207,686.629 426.54,694.795 413.5,698C 398.17,698.5 382.837,698.667 367.5,698.5C 365.736,708.49 362.903,718.157 359,727.5C 352.717,736.225 344.217,740.558 333.5,740.5C 340.033,709.702 347.199,679.035 355,648.5C 360.739,638.579 369.239,632.913 380.5,631.5 Z"/></g>
<g><path style="opacity:1" fill="#fcfefd" d="M 469.5,631.5 C 497.502,631.333 525.502,631.5 553.5,632C 558.712,633.017 562.545,635.851 565,640.5C 566.517,646.08 566.851,651.747 566,657.5C 563.919,665.907 561.585,674.241 559,682.5C 555.076,690.882 548.576,696.049 539.5,698C 519.5,698.333 499.5,698.667 479.5,699C 477.418,706.069 475.584,713.236 474,720.5C 468.882,733.471 459.382,740.138 445.5,740.5C 453.344,704.125 461.344,667.792 469.5,631.5 Z"/></g>
<g><path style="opacity:1" fill="#fdfefe" d="M 570.5,631.5 C 599.502,631.333 628.502,631.5 657.5,632C 668.924,635.667 673.591,643.5 671.5,655.5C 657.829,655.333 644.163,655.5 630.5,656C 625.724,676.475 620.891,696.975 616,717.5C 611.543,732.13 601.71,739.796 586.5,740.5C 592.94,712.196 599.273,683.863 605.5,655.5C 597.493,655.666 589.493,655.5 581.5,655C 572.005,650.06 568.339,642.226 570.5,631.5 Z"/></g>
<g><path style="opacity:0.976" fill="#245caa" d="M 1445.5,640.5 C 1456.88,640.144 1468.21,640.644 1479.5,642C 1503.25,648.156 1515.91,663.489 1517.5,688C 1516.21,699.99 1514.04,711.823 1511,723.5C 1479.39,725.488 1447.56,726.155 1415.5,725.5C 1416.22,738.725 1423.22,745.891 1436.5,747C 1457.42,749.861 1477.92,748.027 1498,741.5C 1498.5,741.833 1499,742.167 1499.5,742.5C 1497.11,752.428 1495.11,762.428 1493.5,772.5C 1469.04,780.381 1444.04,782.548 1418.5,779C 1384.09,770.566 1369.59,748.732 1375,713.5C 1379.13,688.057 1391.29,667.557 1411.5,652C 1422.23,645.995 1433.56,642.161 1445.5,640.5 Z M 1445.5,672.5 C 1452.17,672.334 1458.84,672.5 1465.5,673C 1471.59,674.09 1475.42,677.59 1477,683.5C 1477.65,688.285 1477.15,692.951 1475.5,697.5C 1457.5,698.833 1439.5,698.833 1421.5,697.5C 1424.18,683.825 1432.18,675.492 1445.5,672.5 Z"/></g>
<g><path style="opacity:0.975" fill="#245caa" d="M 1606.5,640.5 C 1619.87,640.143 1633.21,640.643 1646.5,642C 1654.42,643.144 1661.76,645.811 1668.5,650C 1665.92,660.827 1663.25,671.661 1660.5,682.5C 1639.35,672.749 1618.01,672.249 1596.5,681C 1586.23,687.681 1580.06,697.181 1578,709.5C 1576.08,717.523 1576.08,725.523 1578,733.5C 1580.47,738.989 1584.64,742.489 1590.5,744C 1610.54,748.162 1629.87,745.996 1648.5,737.5C 1648.83,738 1649.17,738.5 1649.5,739C 1647.15,750.28 1644.48,761.447 1641.5,772.5C 1617.34,780.866 1592.68,782.7 1567.5,778C 1541.78,771.227 1528.78,754.56 1528.5,728C 1530.52,677.164 1556.52,647.997 1606.5,640.5 Z"/></g>
<g><path style="opacity:1" fill="#4ec378" d="M 489.5,656.5 C 506.659,655.503 523.992,655.17 541.5,655.5C 541.737,656.791 541.404,657.791 540.5,658.5C 523.866,656.514 506.866,655.848 489.5,656.5 Z"/></g>
<g><path style="opacity:1" fill="#14af4c" d="M 489.5,656.5 C 506.866,655.848 523.866,656.514 540.5,658.5C 539.822,663.572 538.822,668.572 537.5,673.5C 520.167,673.5 502.833,673.5 485.5,673.5C 486.087,667.544 487.421,661.878 489.5,656.5 Z"/></g>
</svg>
    