<?xml version="1.0" encoding="UTF-8"?>
<!DOCTYPE svg PUBLIC "-//W3C//DTD SVG 1.1//EN" "http://www.w3.org/Graphics/SVG/1.1/DTD/svg11.dtd">
<svg xmlns="http://www.w3.org/2000/svg" version="1.1" width="300px" height="110px" style="shape-rendering:geometricPrecision; text-rendering:geometricPrecision; image-rendering:optimizeQuality; fill-rule:evenodd; clip-rule:evenodd" xmlns:xlink="http://www.w3.org/1999/xlink">
<g><path style="opacity:0.901" fill="#82c652" d="M 55.5,29.5 C 65.8554,29.0383 68.8554,33.5383 64.5,43C 55.4056,46.2346 51.2389,43.0679 52,33.5C 53.3756,32.2949 54.5423,30.9616 55.5,29.5 Z"/></g>
<g><path style="opacity:0.833" fill="#08452f" d="M 116.5,39.5 C 118.792,39.2436 120.959,39.5769 123,40.5C 127.93,51.1247 132.764,61.7913 137.5,72.5C 134.833,73.8333 132.167,73.8333 129.5,72.5C 128.786,70.1889 127.786,68.0223 126.5,66C 121.845,65.5008 117.179,65.3342 112.5,65.5C 112.389,72.6247 109.056,74.958 102.5,72.5C 107.174,61.4709 111.841,50.4709 116.5,39.5 Z M 119.5,49.5 C 121.01,52.6842 122.677,55.8509 124.5,59C 121.5,59.6667 118.5,59.6667 115.5,59C 116.739,55.7806 118.072,52.6139 119.5,49.5 Z"/></g>
<g><path style="opacity:0.831" fill="#08452f" d="M 138.5,39.5 C 146.833,39.5 155.167,39.5 163.5,39.5C 163.662,41.5273 163.495,43.5273 163,45.5C 157.833,52.6667 152.667,59.8333 147.5,67C 152.823,67.4994 158.156,67.666 163.5,67.5C 163.5,69.5 163.5,71.5 163.5,73.5C 155.167,73.5 146.833,73.5 138.5,73.5C 138.338,71.4727 138.505,69.4727 139,67.5C 144.028,60.6376 148.862,53.6376 153.5,46.5C 148.544,45.5059 143.544,45.1725 138.5,45.5C 138.5,43.5 138.5,41.5 138.5,39.5 Z"/></g>
<g><path style="opacity:0.747" fill="#08452f" d="M 168.5,39.5 C 171.167,39.5 173.833,39.5 176.5,39.5C 176.5,50.8333 176.5,62.1667 176.5,73.5C 173.833,73.5 171.167,73.5 168.5,73.5C 168.5,62.1667 168.5,50.8333 168.5,39.5 Z"/></g>
<g><path style="opacity:0.816" fill="#08452f" d="M 180.5,39.5 C 182.92,39.2924 185.253,39.6258 187.5,40.5C 193.522,47.3539 199.355,54.3539 205,61.5C 205.5,54.1742 205.666,46.8409 205.5,39.5C 207.833,39.5 210.167,39.5 212.5,39.5C 212.5,50.8333 212.5,62.1667 212.5,73.5C 210.473,73.6621 208.473,73.4955 206.5,73C 200.548,66.2597 194.715,59.4263 189,52.5C 188.5,59.4921 188.334,66.4921 188.5,73.5C 185.833,73.5 183.167,73.5 180.5,73.5C 180.5,62.1667 180.5,50.8333 180.5,39.5 Z"/></g>
<g><path style="opacity:0.827" fill="#08452f" d="M 223.5,39.5 C 227.273,39.2633 230.94,39.7633 234.5,41C 236.637,43.1791 236.971,45.6791 235.5,48.5C 232.234,45.9551 228.568,45.1218 224.5,46C 223.643,46.6891 222.977,47.5224 222.5,48.5C 227.564,51.7909 232.397,55.4576 237,59.5C 237.987,71.495 232.487,75.995 220.5,73C 215.618,71.4518 214.284,68.2851 216.5,63.5C 220.208,67.0054 224.541,68.1721 229.5,67C 230.833,65.3333 230.833,63.6667 229.5,62C 226.167,60.3333 222.833,58.6667 219.5,57C 215.329,53.1457 214.496,48.6457 217,43.5C 219.013,41.7518 221.18,40.4185 223.5,39.5 Z"/></g>
<g><path style="opacity:0.81" fill="#08452f" d="M 240.5,39.5 C 243.167,39.5 245.833,39.5 248.5,39.5C 248.334,47.5069 248.5,55.5069 249,63.5C 253.667,68.8333 258.333,68.8333 263,63.5C 263.5,55.5069 263.666,47.5069 263.5,39.5C 265.833,39.5 268.167,39.5 270.5,39.5C 270.666,48.5062 270.5,57.5062 270,66.5C 266.844,71.6734 262.177,74.0067 256,73.5C 249.823,74.0067 245.156,71.6734 242,66.5C 240.619,57.5679 240.119,48.5679 240.5,39.5 Z"/></g>
<g><path style="opacity:0.928" fill="#08432f" d="M 80.5,52.5 C 78.5746,65.0912 71.2413,71.7579 58.5,72.5C 46.2005,71.1971 39.2005,64.5305 37.5,52.5C 37.3359,49.8127 37.5026,47.146 38,44.5C 38.5232,42.7774 39.5232,41.444 41,40.5C 44.0809,42.2909 47.2476,43.9576 50.5,45.5C 47.2399,52.2206 48.9066,57.3872 55.5,61C 66.7842,62.1183 71.1175,57.1183 68.5,46C 78.0658,37.3769 82.0658,39.5435 80.5,52.5 Z"/></g>
<g><path style="opacity:0.915" fill="#83c653" d="M 37.5,52.5 C 39.2005,64.5305 46.2005,71.1971 58.5,72.5C 71.2413,71.7579 78.5746,65.0912 80.5,52.5C 83.6803,54.2549 86.6803,56.2549 89.5,58.5C 79.3817,81.7062 63.0484,87.5396 40.5,76C 35.425,71.4276 31.7584,65.9276 29.5,59.5C 31.2826,56.2576 33.9493,53.9242 37.5,52.5 Z"/></g>
</svg>
