<svg xmlns="http://www.w3.org/2000/svg" version="1.1" width="801px" height="322px" style="shape-rendering:geometricPrecision; text-rendering:geometricPrecision; image-rendering:optimizeQuality; fill-rule:evenodd; clip-rule:evenodd" xmlns:xlink="http://www.w3.org/1999/xlink">
<g><path style="opacity:0.97" fill="#1876f2" d="M 92.5,80.5 C 94.679,80.84 96.5123,81.84 98,83.5C 98.6667,106.167 98.6667,128.833 98,151.5C 79.2483,140.54 60.4149,129.707 41.5,119C 38.5749,115.304 38.9083,111.971 42.5,109C 59.3545,99.6038 76.0211,90.1038 92.5,80.5 Z"/></g>
<g><path style="opacity:0.933" fill="#1431c6" d="M 111.5,104.5 C 115.105,104.799 118.439,105.965 121.5,108C 129.908,113.399 138.575,118.399 147.5,123C 150.425,126.696 150.092,130.029 146.5,133C 133.962,140.367 121.295,147.533 108.5,154.5C 107.334,139.511 107.167,124.511 108,109.5C 108.257,107.093 109.424,105.427 111.5,104.5 Z"/></g>
<g><path style="opacity:0.912" fill="#1a1b1a" d="M 614.5,113.5 C 619.5,113.5 624.5,113.5 629.5,113.5C 629.5,144.5 629.5,175.5 629.5,206.5C 624.5,206.5 619.5,206.5 614.5,206.5C 614.5,175.5 614.5,144.5 614.5,113.5 Z"/></g>
<g><path style="opacity:0.945" fill="#1a1b1a" d="M 195.5,116.5 C 216.5,116.5 237.5,116.5 258.5,116.5C 258.5,121.167 258.5,125.833 258.5,130.5C 250.5,130.5 242.5,130.5 234.5,130.5C 234.5,155.167 234.5,179.833 234.5,204.5C 229.833,204.5 225.167,204.5 220.5,204.5C 220.5,179.833 220.5,155.167 220.5,130.5C 212.167,130.5 203.833,130.5 195.5,130.5C 195.5,125.833 195.5,121.167 195.5,116.5 Z"/></g>
<g><path style="opacity:0.932" fill="#1a1b1a" d="M 441.5,116.5 C 446.167,116.5 450.833,116.5 455.5,116.5C 455.5,145.833 455.5,175.167 455.5,204.5C 451.774,204.823 448.107,204.489 444.5,203.5C 443.985,201.775 443.318,200.108 442.5,198.5C 430.987,206.054 418.653,207.554 405.5,203C 389.972,193.766 384.139,180.266 388,162.5C 392.912,146.612 403.745,138.279 420.5,137.5C 428.15,137.55 434.983,139.883 441,144.5C 441.5,135.173 441.666,125.839 441.5,116.5 Z M 417.5,151.5 C 435.457,151.626 443.29,160.626 441,178.5C 435.53,190.65 426.363,194.817 413.5,191C 400.961,183.266 398.128,172.766 405,159.5C 408.586,155.714 412.753,153.047 417.5,151.5 Z"/></g>
<g><path style="opacity:0.973" fill="#1a1b1a" d="M 550.5,117.5 C 568.167,117.5 585.833,117.5 603.5,117.5C 603.5,122.5 603.5,127.5 603.5,132.5C 590.833,132.5 578.167,132.5 565.5,132.5C 565.5,140.5 565.5,148.5 565.5,156.5C 577.5,156.5 589.5,156.5 601.5,156.5C 601.5,161.167 601.5,165.833 601.5,170.5C 589.5,170.5 577.5,170.5 565.5,170.5C 565.5,182.5 565.5,194.5 565.5,206.5C 560.5,206.5 555.5,206.5 550.5,206.5C 550.5,176.833 550.5,147.167 550.5,117.5 Z"/></g>
<g><path style="opacity:0.946" fill="#1a1b1a" d="M 739.5,125.5 C 741.167,125.5 742.833,125.5 744.5,125.5C 744.5,131.167 744.5,136.833 744.5,142.5C 749.537,142.587 754.537,142.254 759.5,141.5C 759.5,146.5 759.5,151.5 759.5,156.5C 754.5,156.5 749.5,156.5 744.5,156.5C 744.333,167.838 744.5,179.172 745,190.5C 745.903,191.701 747.069,192.535 748.5,193C 752.152,193.499 755.818,193.665 759.5,193.5C 759.8,198.099 759.467,202.599 758.5,207C 751.332,207.988 744.332,207.322 737.5,205C 732.905,202.075 730.405,197.909 730,192.5C 729.5,180.505 729.333,168.505 729.5,156.5C 725.833,156.5 722.167,156.5 718.5,156.5C 718.5,151.5 718.5,146.5 718.5,141.5C 722.119,142.244 725.785,142.577 729.5,142.5C 729.5,137.833 729.5,133.167 729.5,128.5C 733.162,128.277 736.495,127.277 739.5,125.5 Z"/></g>
<g><path style="opacity:0.969" fill="#1876f2" d="M 170.5,127.5 C 173.365,127.055 175.865,127.722 178,129.5C 178.667,150.167 178.667,170.833 178,191.5C 176.758,192.872 175.258,193.872 173.5,194.5C 153.376,183.939 133.709,172.605 114.5,160.5C 133.23,149.474 151.896,138.474 170.5,127.5 Z"/></g>
<g><path style="opacity:0.936" fill="#1a1b1a" d="M 336.5,137.5 C 345.821,137.439 353.987,140.439 361,146.5C 361.662,144.187 362.162,141.854 362.5,139.5C 366.167,139.5 369.833,139.5 373.5,139.5C 373.5,161.167 373.5,182.833 373.5,204.5C 369.5,204.5 365.5,204.5 361.5,204.5C 361.819,202.25 361.319,200.25 360,198.5C 341.67,210.334 325.004,208.334 310,192.5C 303.088,179.661 302.754,166.661 309,153.5C 315.757,143.876 324.924,138.543 336.5,137.5 Z M 333.5,151.5 C 350.951,150.12 359.451,158.12 359,175.5C 353.431,191.366 342.931,195.866 327.5,189C 316.405,178.59 315.738,167.59 325.5,156C 328.099,154.205 330.766,152.705 333.5,151.5 Z"/></g>
<g><path style="opacity:0.938" fill="#1a1b1a" d="M 500.5,137.5 C 524.094,139.637 535.427,152.637 534.5,176.5C 517.163,176.333 499.83,176.5 482.5,177C 488.336,192.173 498.669,196.173 513.5,189C 515.167,187.333 516.833,185.667 518.5,184C 523.5,183.333 528.5,183.333 533.5,184C 525.524,201.823 511.857,208.823 492.5,205C 479.352,200.853 471.518,192.02 469,178.5C 466.647,154.71 477.147,141.044 500.5,137.5 Z M 498.5,150.5 C 509.42,150.114 516.754,154.947 520.5,165C 508.171,165.5 495.838,165.667 483.5,165.5C 485.533,157.467 490.533,152.467 498.5,150.5 Z"/></g>
<g><path style="opacity:0.937" fill="#1a1b1a" d="M 670.5,137.5 C 680.227,137.241 688.727,140.241 696,146.5C 696.311,144.444 696.811,142.444 697.5,140.5C 701.107,139.511 704.774,139.177 708.5,139.5C 708.5,161.167 708.5,182.833 708.5,204.5C 704.5,204.5 700.5,204.5 696.5,204.5C 696.819,202.25 696.319,200.25 695,198.5C 683.316,206.697 670.816,208.197 657.5,203C 642.576,193.977 636.743,180.81 640,163.5C 644.556,148.102 654.722,139.435 670.5,137.5 Z M 667.5,151.5 C 687.751,150.248 696.251,159.581 693,179.5C 685.828,192.169 675.661,195.336 662.5,189C 650.951,177.96 650.618,166.627 661.5,155C 663.727,154.059 665.727,152.892 667.5,151.5 Z"/></g>
<g><path style="opacity:0.957" fill="#1431c6" d="M 52.5,138.5 C 54.8568,138.337 57.1902,138.503 59.5,139C 71.9985,146.082 84.3319,153.415 96.5,161C 83.6647,168.919 70.6647,176.585 57.5,184C 55.3646,184.635 53.3646,184.301 51.5,183C 50.3438,168.908 50.1771,154.742 51,140.5C 51.7172,139.956 52.2172,139.289 52.5,138.5 Z"/></g>
<g><path style="opacity:0.925" fill="#1a1b1a" d="M 295.5,138.5 C 297.435,139.15 299.435,139.483 301.5,139.5C 301.5,143.833 301.5,148.167 301.5,152.5C 285.794,150.22 277.794,156.887 277.5,172.5C 278.477,183.115 278.81,193.781 278.5,204.5C 273.833,204.5 269.167,204.5 264.5,204.5C 264.5,182.833 264.5,161.167 264.5,139.5C 267.518,139.335 270.518,139.502 273.5,140C 274.714,142.351 275.548,144.851 276,147.5C 278.215,144.629 281.049,142.463 284.5,141C 288.28,140.082 291.946,139.249 295.5,138.5 Z"/></g>
<g><path style="opacity:0.934" fill="#1431c6" d="M 107.5,167.5 C 120.941,174.723 134.274,182.223 147.5,190C 149.886,192.707 150.052,195.54 148,198.5C 137.747,205.045 127.247,211.212 116.5,217C 112.525,218.379 109.691,217.213 108,213.5C 107.5,198.17 107.333,182.837 107.5,167.5 Z"/></g>
<g><path style="opacity:0.97" fill="#1876f2" d="M 97.5,169.5 C 98.663,191.996 98.8296,214.663 98,237.5C 96.7581,238.872 95.2581,239.872 93.5,240.5C 75.7878,230.893 58.2878,220.893 41,210.5C 38.9478,207.54 39.1145,204.707 41.5,202C 60.3933,191.392 79.06,180.559 97.5,169.5 Z"/></g>
</svg>
